<?xml version="1.0" encoding="UTF-8"?>
<!DOCTYPE svg PUBLIC "-//W3C//DTD SVG 1.1//EN" "http://www.w3.org/Graphics/SVG/1.1/DTD/svg11.dtd">
<svg xmlns="http://www.w3.org/2000/svg" version="1.1" width="512px" height="512px" style="shape-rendering:geometricPrecision; text-rendering:geometricPrecision; image-rendering:optimizeQuality; fill-rule:evenodd; clip-rule:evenodd" xmlns:xlink="http://www.w3.org/1999/xlink">
<g><path style="opacity:0.974" fill="rgb(255, 221, 87)" d="M 511.5,158.5 C 511.5,162.5 511.5,166.5 511.5,170.5C 506.133,183.004 496.967,187.004 484,182.5C 483.975,247.86 483.309,313.194 482,378.5C 476.698,399.465 464.865,415.632 446.5,427C 413.21,442.923 383.043,438.423 356,413.5C 347.389,403.614 341.389,392.281 338,379.5C 336.727,355.202 336.06,330.869 336,306.5C 334.81,296.785 330.476,288.785 323,282.5C 322.5,340.832 322.333,399.166 322.5,457.5C 332.172,457.334 341.839,457.5 351.5,458C 365.16,462.924 369.66,472.424 365,486.5C 361.714,492.788 356.547,496.288 349.5,497C 238.5,497.667 127.5,497.667 16.5,497C 8.27922,495.603 2.61256,491.103 -0.5,483.5C -0.5,479.5 -0.5,475.5 -0.5,471.5C 1.87225,466.288 5.53892,462.122 10.5,459C 21.4363,457.594 32.4363,457.094 43.5,457.5C 43.3333,332.166 43.5,206.833 44,81.5C 47.7762,49.7825 64.6096,28.2825 94.5,17C 100.392,15.355 106.392,14.355 112.5,14C 159.5,13.3333 206.5,13.3333 253.5,14C 283.576,16.7443 304.743,31.911 317,59.5C 319.774,66.9295 321.441,74.5962 322,82.5C 322.167,134.503 322.667,186.503 323.5,238.5C 342.344,244.852 356.844,256.519 367,273.5C 370.66,280.813 373.327,288.48 375,296.5C 375.081,321.195 375.748,345.862 377,370.5C 383.158,388.979 395.991,397.479 415.5,396C 430.221,392.946 439.387,384.113 443,369.5C 443.667,294.167 443.667,218.833 443,143.5C 423.667,124.167 404.333,104.833 385,85.5C 379.516,75.495 380.683,66.3284 388.5,58C 396.279,52.5115 404.279,52.1782 412.5,57C 444.667,89.1667 476.833,121.333 509,153.5C 509.757,155.315 510.59,156.981 511.5,158.5 Z M 112.5,53.5 C 161.205,53.0238 209.872,53.5238 258.5,55C 271.337,59.8146 279.171,68.9812 282,82.5C 282.5,89.1583 282.666,95.825 282.5,102.5C 216.167,102.5 149.833,102.5 83.5,102.5C 83.3337,95.825 83.5004,89.1583 84,82.5C 87.0132,66.321 96.5132,56.6544 112.5,53.5 Z M 83.5,141.5 C 149.833,141.5 216.167,141.5 282.5,141.5C 282.5,172.167 282.5,202.833 282.5,233.5C 216.167,233.5 149.833,233.5 83.5,233.5C 83.5,202.833 83.5,172.167 83.5,141.5 Z M 83.5,273.5 C 149.833,273.5 216.167,273.5 282.5,273.5C 282.5,334.833 282.5,396.167 282.5,457.5C 216.167,457.5 149.833,457.5 83.5,457.5C 83.5,396.167 83.5,334.833 83.5,273.5 Z"/></g>
</svg>
