<?xml version="1.0" encoding="UTF-8"?>
<!DOCTYPE svg PUBLIC "-//W3C//DTD SVG 1.1//EN" "http://www.w3.org/Graphics/SVG/1.1/DTD/svg11.dtd">
<svg xmlns="http://www.w3.org/2000/svg" version="1.1" width="512px" height="512px" style="shape-rendering:geometricPrecision; text-rendering:geometricPrecision; image-rendering:optimizeQuality; fill-rule:evenodd; clip-rule:evenodd" xmlns:xlink="http://www.w3.org/1999/xlink">
<g><path style="opacity:0.973" fill="rgb(255, 221, 87)" d="M 511.5,237.5 C 511.5,278.833 511.5,320.167 511.5,361.5C 502.501,380.174 494.001,399.174 486,418.5C 483.257,423.581 479.09,426.747 473.5,428C 457.167,428.667 440.833,428.667 424.5,428C 417.025,425.522 412.858,420.356 412,412.5C 411.5,403.506 411.334,394.506 411.5,385.5C 407.833,385.5 404.167,385.5 400.5,385.5C 400.667,401.17 400.5,416.837 400,432.5C 398.684,439.815 394.517,444.648 387.5,447C 327.833,447.667 268.167,447.667 208.5,447C 205.048,446.108 202.048,444.442 199.5,442C 178.5,424.333 157.5,406.667 136.5,389C 113.167,388.667 89.8333,388.333 66.5,388C 61.6667,385.833 58.1667,382.333 56,377.5C 55.5,345.835 55.3334,314.168 55.5,282.5C 48.1667,282.5 40.8333,282.5 33.5,282.5C 33.9706,314.549 33.4706,346.549 32,378.5C 25.8922,388.737 17.3922,391.237 6.5,386C 3.54644,383.559 1.21311,380.725 -0.5,377.5C -0.5,303.167 -0.5,228.833 -0.5,154.5C 5.66682,143.201 14.6668,140.368 26.5,146C 29.1059,147.938 30.9392,150.438 32,153.5C 33.4703,185.117 33.9703,216.784 33.5,248.5C 40.8333,248.5 48.1667,248.5 55.5,248.5C 55.3334,217.165 55.5,185.832 56,154.5C 57.8592,149.307 61.3592,145.807 66.5,144C 80.4491,142.591 94.4491,142.091 108.5,142.5C 108.116,135.411 108.616,128.411 110,121.5C 112.455,116.851 116.288,114.017 121.5,113C 149.831,112.5 178.165,112.333 206.5,112.5C 206.5,107.5 206.5,102.5 206.5,97.5C 177.831,97.6666 149.165,97.5 120.5,97C 109.457,92.2326 105.957,84.0659 110,72.5C 112.315,68.1832 115.815,65.3498 120.5,64C 189.167,63.3333 257.833,63.3333 326.5,64C 337.685,68.2045 341.519,76.0379 338,87.5C 335.632,92.4349 331.799,95.6015 326.5,97C 297.835,97.5 269.169,97.6666 240.5,97.5C 240.5,102.5 240.5,107.5 240.5,112.5C 269.169,112.333 297.835,112.5 326.5,113C 333.106,115.272 337.273,119.772 339,126.5C 339.5,142.497 339.667,158.497 339.5,174.5C 355.503,174.333 371.503,174.5 387.5,175C 392.91,176.743 396.744,180.243 399,185.5C 400.346,194.441 400.846,203.441 400.5,212.5C 404.167,212.5 407.833,212.5 411.5,212.5C 411.334,203.494 411.5,194.494 412,185.5C 413.042,176.791 417.875,171.625 426.5,170C 443.212,169.075 459.879,169.408 476.5,171C 479.562,172.061 482.062,173.894 484,176.5C 493.216,196.924 502.383,217.257 511.5,237.5 Z M 142.5,146.5 C 196.833,146.5 251.167,146.5 305.5,146.5C 305.333,163.503 305.5,180.503 306,197.5C 308.256,202.757 312.09,206.257 317.5,208C 333.497,208.5 349.497,208.667 365.5,208.5C 365.154,217.559 365.654,226.559 367,235.5C 368.556,240.876 372.056,244.376 377.5,246C 396.5,246.667 415.5,246.667 434.5,246C 439.598,244.567 443.098,241.4 445,236.5C 446.375,225.889 446.875,215.222 446.5,204.5C 450.884,204.174 455.217,204.508 459.5,205.5C 465.431,218.792 471.264,232.125 477,245.5C 477.667,281.5 477.667,317.5 477,353.5C 471,366.833 465,380.167 459,393.5C 454.934,394.464 450.767,394.797 446.5,394.5C 446.666,385.161 446.5,375.827 446,366.5C 444.684,359.185 440.517,354.352 433.5,352C 415.167,351.333 396.833,351.333 378.5,352C 373.09,353.743 369.256,357.243 367,362.5C 365.573,379.452 365.073,396.452 365.5,413.5C 316.832,413.667 268.166,413.5 219.5,413C 199.167,396 178.833,379 158.5,362C 155.772,359.608 152.772,357.608 149.5,356C 129.567,354.536 109.567,354.036 89.5,354.5C 89.5,295.5 89.5,236.5 89.5,177.5C 102.171,177.667 114.838,177.5 127.5,177C 134.815,175.684 139.648,171.517 142,164.5C 142.499,158.509 142.666,152.509 142.5,146.5 Z"/></g>
</svg>
