<?xml version="1.0" standalone="no"?>
<!DOCTYPE svg PUBLIC "-//W3C//DTD SVG 20010904//EN"
 "http://www.w3.org/TR/2001/REC-SVG-20010904/DTD/svg10.dtd">
<svg version="1.0" xmlns="http://www.w3.org/2000/svg"
 width="398.000000pt" height="166.000000pt" viewBox="0 0 398.000000 166.000000"
 preserveAspectRatio="xMidYMid meet">

<g transform="translate(0.000000,166.000000) scale(0.100000,-0.100000)"
fill="#ffffff" stroke="none">
<path d="M1695 1565 c-184 -30 -338 -78 -627 -194 -144 -57 -197 -73 -282 -86
-198 -30 -383 -89 -530 -170 -125 -68 -161 -103 -52 -50 224 110 568 182 886
186 52 1 86 3 75 6 -11 2 -53 11 -94 19 -53 12 -70 19 -59 25 23 13 359 124
463 153 316 88 581 98 895 35 52 -10 115 -25 140 -32 44 -13 44 -14 21 -26
-35 -19 -184 -70 -286 -97 l-90 -25 75 5 c128 9 561 97 660 134 24 9 24 10
-15 21 -77 22 -291 62 -440 82 -202 27 -611 35 -740 14z"/>
<path d="M2990 1393 c-114 -44 -335 -94 -580 -132 -122 -19 7 -9 180 13 362
48 497 59 655 53 162 -5 234 -20 323 -64 68 -35 161 -133 201 -215 l32 -63 -5
70 c-4 84 -35 169 -82 231 -23 29 -30 46 -22 48 46 13 108 39 108 44 0 4 -118
7 -263 8 -148 0 -294 5 -337 12 -139 22 -142 22 -210 -5z"/>
<path d="M2118 1303 c6 -2 18 -2 25 0 6 3 1 5 -13 5 -14 0 -19 -2 -12 -5z"/>
<path d="M2303 1243 c9 -2 25 -2 35 0 9 3 1 5 -18 5 -19 0 -27 -2 -17 -5z"/>
<path d="M2223 1233 c9 -2 25 -2 35 0 9 3 1 5 -18 5 -19 0 -27 -2 -17 -5z"/>
<path d="M2143 1223 c9 -2 23 -2 30 0 6 3 -1 5 -18 5 -16 0 -22 -2 -12 -5z"/>
<path d="M2991 1184 c-71 -15 -161 -55 -182 -81 -8 -9 4 -5 26 10 66 43 145
60 254 55 105 -4 180 -30 253 -88 30 -24 46 -30 85 -30 l48 1 -37 33 c-113 99
-280 137 -447 100z"/>
<path d="M735 1136 c-63 -20 -138 -62 -160 -87 l-20 -24 20 17 c73 61 214 97
310 79 69 -13 160 -53 195 -86 23 -21 110 -41 110 -24 0 16 -79 74 -140 103
-58 27 -77 31 -170 33 -67 2 -119 -2 -145 -11z"/>
<path d="M330 791 c-122 -38 -210 -143 -218 -262 -2 -31 1 -73 7 -92 16 -47
79 -103 133 -118 85 -23 226 9 273 61 17 19 16 21 -9 55 -15 19 -29 35 -30 35
-2 0 -24 -11 -47 -25 -62 -35 -119 -34 -161 4 -28 25 -32 34 -31 79 1 57 23
104 64 134 53 40 142 40 182 0 20 -20 20 -20 68 16 45 33 48 38 36 57 -26 39
-95 65 -172 64 -38 0 -81 -4 -95 -8z"/>
<path d="M816 768 c-44 -72 -252 -397 -268 -420 l-19 -28 69 0 70 0 26 45 27
45 104 0 104 0 7 -45 6 -45 69 0 c38 0 69 3 69 8 0 4 -25 109 -56 235 l-57
227 -68 0 c-60 0 -70 -3 -83 -22z m78 -190 l14 -68 -65 0 c-49 0 -62 3 -57 13
45 75 88 139 91 131 1 -5 9 -39 17 -76z"/>
<path d="M1215 768 c-11 -49 -85 -429 -85 -438 0 -6 29 -10 64 -10 l64 0 14
63 c13 61 14 62 49 65 36 3 37 2 67 -62 l31 -66 70 0 70 0 -16 38 c-8 20 -24
54 -34 74 l-19 37 29 16 c73 37 118 155 88 228 -27 62 -72 77 -244 77 -140 0
-143 0 -148 -22z m247 -95 c26 -23 23 -69 -7 -98 -20 -21 -34 -25 -85 -25 -68
0 -68 0 -49 90 l11 50 56 0 c38 0 61 -5 74 -17z"/>
<path d="M1679 555 l-45 -235 193 0 c182 0 193 1 193 19 0 10 3 33 6 50 l7 31
-122 0 c-119 0 -121 0 -121 23 1 65 3 67 116 67 56 0 105 3 107 8 3 4 8 26 12
50 l7 42 -106 0 -106 0 6 28 c3 15 7 33 10 40 2 9 36 12 123 12 l119 0 7 33
c4 17 9 40 11 50 5 16 -8 17 -183 17 l-188 0 -46 -235z"/>
<path d="M2185 778 c-3 -7 -24 -113 -48 -235 l-44 -223 68 0 67 0 7 48 c3 26
9 53 13 58 4 6 43 14 86 17 158 14 236 78 244 201 3 52 1 65 -19 90 -37 47
-73 56 -229 56 -103 0 -142 -3 -145 -12z m243 -104 c31 -21 28 -60 -7 -95 -26
-26 -36 -29 -91 -29 -54 0 -61 2 -56 18 2 9 7 33 11 52 13 71 12 70 68 70 31
0 62 -6 75 -16z"/>
<path d="M2777 738 c-18 -29 -51 -80 -72 -113 -21 -33 -73 -115 -116 -182
l-79 -123 68 0 67 0 27 45 28 45 104 0 105 0 7 -45 6 -45 70 0 c62 0 70 2 66
18 -3 9 -29 115 -59 235 l-54 217 -66 0 -67 0 -35 -52z m92 -153 c8 -37 11
-68 8 -71 -2 -3 -30 -4 -60 -2 l-55 3 40 68 c22 37 44 67 47 67 4 0 13 -29 20
-65z"/>
<path d="M3195 778 c-6 -18 -85 -433 -85 -447 0 -7 23 -11 63 -11 l64 0 42
213 c23 116 45 222 48 235 5 21 3 22 -61 22 -44 0 -68 -4 -71 -12z"/>
<path d="M3430 787 c0 -2 -20 -104 -45 -227 -25 -123 -45 -227 -45 -232 0 -4
29 -8 64 -8 l64 0 14 63 c13 61 14 62 49 65 36 3 37 2 68 -62 l32 -66 69 0
c39 0 70 2 70 5 0 3 -15 36 -34 73 l-34 68 34 22 c110 72 124 231 25 281 -35
18 -59 21 -186 21 -80 0 -145 -1 -145 -3z m244 -113 c24 -23 20 -71 -9 -99
-20 -21 -34 -25 -85 -25 -68 0 -66 -3 -49 83 l12 57 58 0 c39 0 63 -5 73 -16z"/>
<path d="M720 147 c0 -5 8 -21 19 -35 10 -15 21 -34 24 -42 4 -11 6 -9 6 5 1
11 8 31 17 43 9 13 13 26 10 29 -3 3 -11 -7 -18 -22 l-12 -27 -23 28 c-13 16
-23 25 -23 21z"/>
<path d="M846 131 c-35 -39 12 -94 60 -72 31 14 34 65 5 81 -29 15 -46 12 -65
-9z m62 -3 c28 -28 1 -75 -38 -63 -14 4 -20 15 -20 35 0 37 33 53 58 28z"/>
<path d="M982 112 c-2 -36 2 -44 23 -54 36 -16 55 4 53 56 l-1 41 -4 -37 c-2
-20 -11 -42 -19 -48 -21 -18 -42 4 -47 48 -4 37 -4 37 -5 -6z"/>
<path d="M1121 103 c0 -27 3 -42 6 -35 7 18 33 15 50 -5 13 -16 13 -16 4 4 -7
14 -8 24 -1 28 16 10 12 42 -6 49 -43 17 -54 8 -53 -41z m54 12 c0 -13 -8 -21
-22 -23 -19 -3 -23 1 -23 23 0 22 4 26 23 23 14 -2 22 -10 22 -23z"/>
<path d="M1307 143 c-14 -14 -6 -34 18 -45 33 -15 34 -42 0 -36 -13 3 -22 1
-19 -3 12 -21 64 -1 64 24 0 4 -13 13 -30 18 -37 13 -42 44 -5 37 13 -3 22 -1
19 3 -6 11 -38 12 -47 2z"/>
<path d="M1414 105 c1 -50 1 -50 36 -52 34 -1 34 -1 5 5 -27 6 -31 12 -36 52
l-7 45 2 -50z"/>
<path d="M1526 134 c-21 -21 -20 -47 2 -67 23 -21 46 -22 66 -1 31 30 9 84
-34 84 -10 0 -26 -7 -34 -16z m64 -9 c26 -32 -13 -81 -47 -59 -23 14 -28 41
-13 59 16 19 44 19 60 0z"/>
<path d="M1667 132 c-24 -26 -21 -49 8 -68 31 -20 65 -10 64 19 l0 22 -9 -22
c-5 -13 -16 -23 -24 -23 -18 0 -46 27 -46 44 0 21 28 39 50 33 11 -3 18 -1 14
4 -9 15 -40 10 -57 -9z"/>
<path d="M1800 104 c-21 -49 -26 -70 -9 -41 5 9 21 17 34 17 13 0 29 -8 34
-17 17 -29 12 -8 -9 41 -10 25 -22 46 -25 46 -3 0 -15 -21 -25 -46z m40 0 c0
-8 -7 -14 -15 -14 -15 0 -21 21 -9 33 10 9 24 -2 24 -19z"/>
<path d="M1921 100 c2 -51 2 -52 8 -17 l6 39 23 -31 c32 -43 42 -39 41 17 l-2
47 -6 -40 -6 -39 -32 39 -33 40 1 -55z"/>
<path d="M2128 139 c-22 -12 -23 -52 -2 -73 26 -26 64 -16 63 18 0 20 -1 20
-10 -2 -10 -27 -36 -26 -53 1 -15 24 5 52 37 52 14 -1 23 3 21 7 -7 11 -35 9
-56 -3z"/>
<path d="M2258 139 c-36 -20 -12 -89 31 -89 21 0 51 30 51 52 0 18 -31 48 -51
48 -8 0 -22 -5 -31 -11z m62 -14 c15 -19 4 -52 -21 -60 -38 -12 -65 35 -37 63
16 16 43 15 58 -3z"/>
<path d="M2390 100 l0 -50 33 1 c30 2 30 2 5 6 -19 3 -28 10 -28 23 0 13 9 20
28 23 l27 4 -27 2 c-37 1 -37 28 0 34 25 4 25 4 -5 6 l-33 1 0 -50z"/>
<path d="M2507 143 c-15 -14 -6 -33 23 -48 34 -18 30 -39 -6 -32 -13 2 -21 0
-18 -4 9 -15 41 -10 55 7 11 14 10 18 -6 30 -10 8 -25 14 -33 14 -7 0 -12 6
-9 13 2 6 14 12 26 11 11 0 21 3 21 8 0 10 -44 11 -53 1z"/>
<path d="M2683 100 c0 -30 2 -43 4 -27 6 35 49 39 63 5 7 -18 9 -12 8 27 0 28
-3 40 -5 28 -3 -18 -11 -23 -33 -23 -22 0 -30 5 -33 23 -2 12 -4 -3 -4 -33z"/>
<path d="M2812 103 c3 -47 4 -48 38 -49 26 -1 28 -1 8 3 -35 6 -39 40 -5 46
l22 4 -22 2 c-33 2 -29 29 5 34 21 3 19 4 -11 6 l-38 1 3 -47z"/>
<path d="M2931 98 c1 -29 3 -45 6 -35 5 20 33 23 52 5 10 -10 12 -10 7 -1 -4
7 -1 22 6 33 11 18 10 23 -6 36 -11 8 -30 14 -43 14 -21 0 -23 -4 -22 -52z
m57 30 c15 -15 -3 -38 -29 -38 -14 0 -19 7 -19 25 0 27 26 35 48 13z"/>
<path d="M3060 100 l0 -50 33 1 c30 2 30 2 5 6 -38 6 -38 40 0 46 l27 4 -27 2
c-17 0 -28 7 -28 15 0 8 12 17 28 19 25 4 25 4 -5 6 l-33 1 0 -50z"/>
</g>
</svg>
